<?xml version="1.0" encoding="utf-8"?>
<!-- Generator: Adobe Illustrator 16.0.0, SVG Export Plug-In . SVG Version: 6.00 Build 0)  -->
<!DOCTYPE svg PUBLIC "-//W3C//DTD SVG 1.1//EN" "http://www.w3.org/Graphics/SVG/1.1/DTD/svg11.dtd">
<svg version="1.1" id="svg3430" xmlns="http://www.w3.org/2000/svg" xmlns:xlink="http://www.w3.org/1999/xlink" x="0px" y="0px"
	 width="512px" height="512px" viewBox="99.601 -64.201 512 512" enable-background="new 99.601 -64.201 512 512"
	 xml:space="preserve">
<g id="g3438" transform="matrix(1.25 0 0 -1.25 -4.4 394.3)">
	<g id="g3440">
		<g>
			<defs>
				<path id="SVGID_1_" d="M126.21,162c0-47.003,72.438-85.109,161.791-85.109c89.353,0,161.791,38.105,161.791,85.109
					c0,47.003-72.438,85.109-161.791,85.109C198.648,247.109,126.21,209.002,126.21,162"/>
			</defs>
			<clipPath id="SVGID_2_">
				<use xlink:href="#SVGID_1_"  overflow="visible"/>
			</clipPath>
			<g id="g3442" clip-path="url(#SVGID_2_)">
				<g id="g3448">
					<g id="g3450">
						
							<radialGradient id="path3462_1_" cx="168.4134" cy="42.0455" r="0.5849" gradientTransform="matrix(453.825 0 0 -453.825 -76206.75 19298.7402)" gradientUnits="userSpaceOnUse">
							<stop  offset="0" style="stop-color:#AEB2D5"/>
							<stop  offset="0.3" style="stop-color:#AEB2D5"/>
							<stop  offset="0.75" style="stop-color:#484C89"/>
							<stop  offset="1" style="stop-color:#484C89"/>
						</radialGradient>
						<path id="path3462" fill="url(#path3462_1_)" d="M126.21,162c0-47.003,72.438-85.109,161.791-85.109
							c89.353,0,161.791,38.105,161.791,85.109c0,47.003-72.438,85.109-161.791,85.109C198.648,247.109,126.21,209.002,126.21,162"
							/>
					</g>
				</g>
			</g>
		</g>
	</g>
	<g id="g3464">
		<g>
			<defs>
				<rect id="SVGID_3_" x="77.335" y="43.501" width="421.33" height="236.998"/>
			</defs>
			<clipPath id="SVGID_4_">
				<use xlink:href="#SVGID_3_"  overflow="visible"/>
			</clipPath>
			<g id="g3466" clip-path="url(#SVGID_4_)">
				<g id="g3472" transform="translate(288 27.36)">
					<path id="path3474" fill="#777BB3" d="M0,55.852c85.863,0,155.47,35.274,155.47,78.788S85.864,213.431,0,213.431
						c-85.864,0-155.471-35.276-155.471-78.789C-155.47,91.126-85.863,55.852,0,55.852"/>
				</g>
			</g>
		</g>
	</g>
	<g id="g3476">
		<g>
			<defs>
				<rect id="SVGID_5_" x="77.335" y="43.501" width="421.33" height="236.998"/>
			</defs>
			<clipPath id="SVGID_6_">
				<use xlink:href="#SVGID_5_"  overflow="visible"/>
			</clipPath>
			<g id="g3478" clip-path="url(#SVGID_6_)">
				<g id="g3484" transform="translate(161.73 145.31)">
					<path id="path3486" d="M52.38,6.924c7.06,0,12.331,1.302,15.665,3.867c3.3,2.541,5.579,6.943,6.773,13.082
						c1.114,5.738,0.689,9.745-1.261,11.907c-1.993,2.208-6.304,3.328-12.811,3.328H49.464L43.208,6.924H52.38z M15.477-32.722
						c-0.524,0-1.021,0.234-1.354,0.639c-0.334,0.403-0.468,0.936-0.369,1.451l16.577,85.29c0.164,0.825,0.883,1.421,1.726,1.421
						h35.725c11.23,0,19.586-3.048,24.841-9.063c5.284-6.045,6.911-14.496,4.85-25.116c-0.84-4.327-2.285-8.346-4.295-11.943
						c-2.013-3.602-4.672-6.934-7.906-9.907c-3.879-3.624-8.257-6.252-13.02-7.797c-4.682-1.527-10.696-2.299-17.875-2.299H39.911
						l-4.131-21.255c-0.161-0.826-0.882-1.421-1.723-1.421H15.477L15.477-32.722z"/>
				</g>
				<g id="g3488" transform="translate(159.22 197.31)">
					<path id="path3490" fill="#FFFFFF" d="M53.421-14.647h9.836c7.853,0,10.582-1.723,11.509-2.75
						c1.538-1.705,1.829-5.3,0.84-10.396c-1.111-5.706-3.169-9.752-6.12-12.023c-3.02-2.326-7.931-3.504-14.594-3.504h-7.043
						L53.421-14.647z M70.292,5.834H34.564c-1.681,0-3.125-1.191-3.447-2.841l-16.576-85.29c-0.205-1.03,0.07-2.095,0.731-2.903
						c0.667-0.809,1.662-1.277,2.709-1.277h18.58c1.679,0,3.125,1.191,3.446,2.841l3.857,19.835h13.02
						c7.362,0,13.563,0.802,18.421,2.385c4.998,1.624,9.597,4.377,13.668,8.184c3.365,3.102,6.139,6.577,8.239,10.334
						c2.101,3.757,3.611,7.959,4.487,12.465c2.174,11.183,0.408,20.136-5.249,26.608c-5.598,6.413-14.4,9.661-26.158,9.661
						 M43.59-46.832h11.3c7.491,0,13.071,1.409,16.737,4.233c3.667,2.823,6.14,7.535,7.425,14.136
						c1.229,6.339,0.67,10.813-1.68,13.418c-2.352,2.606-7.057,3.909-14.116,3.909H50.527l-6.938-35.696 M70.292,2.323
						c10.748,0,18.589-2.821,23.518-8.462c4.927-5.642,6.411-13.518,4.445-23.627c-0.809-4.164-2.178-7.972-4.105-11.423
						c-1.925-3.452-4.447-6.608-7.56-9.47c-3.711-3.47-7.83-5.945-12.365-7.416c-4.536-1.48-10.311-2.216-17.334-2.216H40.974
						l-4.408-22.676H17.987l16.577,85.29H70.292"/>
				</g>
				<g id="g3492" transform="translate(311.58 116.31)">
					<path id="path3494" d="M-9.781,18.953c-0.524,0-1.021,0.234-1.354,0.639c-0.334,0.403-0.47,0.936-0.369,1.451l7.332,37.738
						c0.698,3.589,0.526,6.164-0.484,7.253c-0.62,0.665-2.475,1.781-7.964,1.781h-13.284l-9.219-47.441
						c-0.161-0.826-0.884-1.421-1.724-1.421h-18.433c-0.524,0-1.021,0.234-1.355,0.639c-0.334,0.403-0.468,0.936-0.369,1.451
						l16.577,85.29c0.16,0.825,0.883,1.421,1.723,1.421h18.433c0.524,0,1.021-0.234,1.355-0.638
						c0.334-0.405,0.468-0.937,0.369-1.452l-4-20.586h14.291c10.887,0,18.27-1.92,22.57-5.868
						c4.383-4.029,5.751-10.469,4.065-19.147l-7.713-39.688c-0.161-0.827-0.882-1.422-1.723-1.422H-9.781z"/>
				</g>
				<g id="g3496" transform="translate(293.66 271.06)">
					<path id="path3498" fill="#FFFFFF" d="M-2.347-45.24h-18.434c-1.681,0-3.126-1.191-3.446-2.841l-16.577-85.29
						c-0.2-1.03,0.07-2.095,0.737-2.903c0.667-0.809,1.661-1.277,2.709-1.277h18.433c1.68,0,3.126,1.191,3.446,2.841l8.943,46.021
						H5.304c5.478,0,6.628-1.17,6.675-1.221c0.333-0.357,0.772-2.013,0.052-5.723l-7.333-37.738
						c-0.198-1.03,0.071-2.094,0.738-2.903c0.667-0.809,1.662-1.277,2.71-1.277h18.726c1.679,0,3.124,1.191,3.446,2.841l7.706,39.69
						c1.81,9.316,0.262,16.305-4.599,20.774c-4.64,4.26-12.411,6.332-23.759,6.332H-2.495l3.594,18.495
						c0.199,1.03-0.07,2.095-0.738,2.902C-0.305-45.708-1.299-45.24-2.347-45.24 M-2.347-48.751l-4.407-22.676h16.42
						c10.333,0,17.46-1.804,21.382-5.406c3.923-3.605,5.098-9.445,3.53-17.519l-7.713-39.689H8.14l7.332,37.737
						c0.835,4.293,0.528,7.221-0.92,8.782c-1.452,1.561-4.535,2.343-9.252,2.343H-9.435l-9.498-48.863h-18.433l16.584,85.29H-2.347"
						/>
				</g>
				<g id="g3500" transform="translate(409.55 145.31)">
					<path id="path3502" d="M-50.421,6.924c7.06,0,12.33,1.302,15.665,3.867c3.301,2.541,5.579,6.942,6.774,13.082
						c1.113,5.738,0.688,9.745-1.262,11.907c-1.994,2.208-6.304,3.328-12.811,3.328h-11.283l-6.255-32.184H-50.421z M-87.323-32.722
						c-0.524,0-1.022,0.234-1.355,0.639c-0.334,0.403-0.47,0.936-0.369,1.451l16.577,85.29c0.164,0.825,0.884,1.421,1.727,1.421
						h35.725c11.23,0,19.586-3.048,24.841-9.063c5.284-6.045,6.912-14.495,4.852-25.116c-0.839-4.327-2.284-8.346-4.295-11.943
						c-2.013-3.602-4.671-6.934-7.906-9.907c-3.88-3.624-8.259-6.252-13.02-7.797c-4.681-1.527-10.696-2.299-17.875-2.299h-14.468
						l-4.129-21.255c-0.161-0.826-0.884-1.421-1.724-1.421H-87.323z"/>
				</g>
				<g id="g3504" transform="translate(407.04 197.31)">
					<path id="path3506" fill="#FFFFFF" d="M-49.379-14.647h9.835c7.853,0,10.582-1.723,11.509-2.75
						c1.54-1.705,1.829-5.3,0.84-10.396c-1.11-5.705-3.17-9.752-6.12-12.023c-3.021-2.326-7.931-3.504-14.595-3.504h-7.042
						L-49.379-14.647z M-32.509,5.834h-35.727c-1.68,0-3.125-1.191-3.447-2.841l-16.577-85.29c-0.2-1.03,0.07-2.095,0.737-2.903
						c0.667-0.809,1.66-1.277,2.709-1.277h18.579c1.68,0,3.125,1.191,3.447,2.841l3.854,19.835h13.02
						c7.362,0,13.56,0.802,18.42,2.385c4.997,1.624,9.597,4.377,13.667,8.184c3.365,3.096,6.133,6.572,8.234,10.331
						c2.102,3.761,3.611,7.955,4.489,12.466c2.173,11.18,0.408,20.132-5.249,26.607c-5.596,6.412-14.401,9.663-26.156,9.663
						 M-59.211-46.832h11.3c7.491,0,13.071,1.409,16.738,4.233c3.668,2.823,6.139,7.535,7.424,14.136
						c1.23,6.339,0.67,10.813-1.679,13.418c-2.353,2.606-7.058,3.909-14.116,3.909h-12.73L-59.211-46.832 M-32.509,2.323
						c10.749,0,18.589-2.821,23.519-8.462c4.927-5.642,6.411-13.518,4.445-23.627c-0.81-4.164-2.178-7.972-4.105-11.423
						c-1.926-3.452-4.447-6.608-7.56-9.47c-3.71-3.47-7.83-5.945-12.365-7.416c-4.536-1.48-10.312-2.216-17.334-2.216h-15.917
						l-4.407-22.676h-18.579l16.576,85.29H-32.509"/>
				</g>
			</g>
		</g>
	</g>
</g>
</svg>
